<?xml version="1.0" encoding="utf-8"?>
<!-- Generator: Adobe Illustrator 19.2.0, SVG Export Plug-In . SVG Version: 6.00 Build 0)  -->
<svg version="1.1" id="Shape_1_1_" xmlns="http://www.w3.org/2000/svg" xmlns:xlink="http://www.w3.org/1999/xlink" x="0px" y="0px"
	 viewBox="0 0 45 32" enable-background="new 0 0 45 32" xml:space="preserve">
<g id="Shape_1">
	<g>
		<path fill="#3588D3" d="M28.5,16.4l-3.7-0.5l-1.6-3.3c-0.1-0.2-0.4-0.4-0.7-0.4c-0.3,0-0.5,0.2-0.7,0.4l-1.6,3.3l-3.7,0.5
			c-0.3,0-0.5,0.2-0.6,0.5c-0.1,0.3,0,0.6,0.2,0.7l2.7,2.6l-0.6,3.6c0,0.3,0.1,0.5,0.3,0.7c0.2,0.2,0.5,0.2,0.8,0.1l3.3-1.7l3.3,1.7
			c0.1,0.1,0.2,0.1,0.3,0.1c0.2,0,0.3,0,0.4-0.1c0.2-0.2,0.3-0.4,0.3-0.7l-0.6-3.6l2.7-2.6c0.2-0.2,0.3-0.5,0.2-0.7
			C29,16.6,28.7,16.4,28.5,16.4z M24.9,19.4c-0.2,0.2-0.2,0.4-0.2,0.6l0.4,2.6l-2.3-1.2c-0.2-0.1-0.5-0.1-0.7,0l-2.3,1.2l0.4-2.6
			c0-0.2,0-0.5-0.2-0.6l-1.9-1.8l2.6-0.4c0.2,0,0.4-0.2,0.5-0.4l1.2-2.3l1.2,2.3c0.1,0.2,0.3,0.4,0.5,0.4l2.6,0.4L24.9,19.4z
			 M15.2,30.7c-0.9-0.6-1.8-1.3-2.6-2.1c-1.8-1.7-3-3.8-3.8-6c3.5-1.3,5.4-5.1,4.3-8.7c-0.1-0.4-0.5-0.6-0.9-0.5
			c-1.8,0.5-3.4,1.8-4.3,3.4c0,0.1-0.1,0.1-0.1,0.2c0-1.5,0.2-3.1,0.7-4.6c0.6,0.2,1.2,0.2,1.8,0.2c3,0,5.7-1.8,6.8-4.8
			C17.2,7.5,17,7.1,16.6,7c-1.8-0.6-3.7-0.5-5.5,0.3c0.4-0.6,0.9-1.1,1.4-1.6c0.3-0.3,0.3-0.7,0-1c-0.3-0.3-0.7-0.3-1,0
			c-0.4,0.4-0.7,0.8-1.1,1.2c-0.1-2.2-1.1-4.2-3-5.6C7.2-0.1,6.7,0,6.5,0.3C5.4,1.9,4.9,3.8,5.3,5.7c0.3,1.7,1.2,3.3,2.6,4.4
			c-0.2,0.6-0.4,1.1-0.6,1.7c-0.1-0.3-0.3-0.6-0.5-0.9c-1-1.6-2.6-2.7-4.5-3.2c-0.2,0-0.4,0-0.5,0.1C1.5,7.8,1.4,8,1.3,8.2
			c-0.8,3.7,1.4,7.4,5.1,8.5c0,0.8,0,1.5,0.1,2.3c-0.2-0.1-0.3-0.3-0.5-0.4c-1.5-1.1-3.4-1.6-5.3-1.3c-0.4,0.1-0.7,0.4-0.6,0.8
			c0.3,1.9,1.3,3.6,2.9,4.7c1.2,0.9,2.7,1.4,4.2,1.4c0.2,0,0.5,0,0.7,0c0.3,0.7,0.6,1.4,1,2c-2.2-0.7-4.8-0.3-6.8,1.3
			c-0.3,0.3-0.4,0.7-0.1,1c1.2,1.5,2.9,2.4,4.9,2.6c0.2,0,0.5,0,0.7,0c1.5,0,2.9-0.5,4.1-1.3c0.8,0.8,1.7,1.5,2.7,2.1
			c0.1,0.1,0.3,0.1,0.4,0.1c0.2,0,0.5-0.1,0.6-0.3C15.6,31.3,15.5,30.9,15.2,30.7z M11.8,8.6c1.1-0.5,2.4-0.7,3.6-0.4
			c-1.2,2.3-3.8,3.5-6.3,3C9.7,10,10.6,9.1,11.8,8.6z M6.7,5.4c-0.2-1.2,0-2.5,0.6-3.6c1.9,1.8,2.3,4.6,1.2,6.8
			C7.5,7.8,6.9,6.7,6.7,5.4z M6.4,15.1C4,14.2,2.4,11.8,2.6,9.3c1.2,0.4,2.2,1.2,2.8,2.3C6.2,12.7,6.5,13.9,6.4,15.1z M3.7,21.6
			c-1-0.8-1.8-1.8-2.1-3c0,0,0.1,0,0.1,0c2.5,0,4.8,1.7,5.5,4.1C6,22.7,4.7,22.3,3.7,21.6z M9.2,17.5c0.6-1.1,1.6-2,2.7-2.5
			c0.4,2.5-1,5-3.3,6.1C8.4,19.9,8.6,18.7,9.2,17.5z M7,29.6c-1.3-0.1-2.4-0.7-3.3-1.5c2.2-1.3,5-1.1,6.9,0.7
			C9.5,29.4,8.3,29.7,7,29.6z M37.9,24.1c1.5,0,3-0.5,4.2-1.4c1.5-1.1,2.6-2.8,2.9-4.7c0.1-0.4-0.2-0.8-0.6-0.8
			c-2.2-0.3-4.3,0.4-5.9,1.7c0.1-0.8,0.1-1.5,0.1-2.3c1.7-0.5,3.2-1.6,4.1-3.1c1-1.6,1.4-3.5,0.9-5.4c-0.1-0.4-0.5-0.6-0.9-0.5
			c-1.9,0.4-3.5,1.5-4.5,3.2c-0.2,0.3-0.4,0.6-0.5,0.9c-0.2-0.6-0.4-1.1-0.6-1.7c2.9-2.4,3.6-6.6,1.4-9.7C38.4,0.1,38.2,0,38.1,0
			c-0.2,0-0.4,0-0.5,0.1c-1.6,1.1-2.6,2.8-2.9,4.7c-0.1,0.3-0.1,0.6-0.1,0.9c-0.3-0.4-0.7-0.8-1.1-1.2c-0.3-0.3-0.7-0.3-1,0
			c-0.3,0.3-0.3,0.7,0,1c0.5,0.5,1,1.1,1.4,1.6c-1.7-0.8-3.7-0.9-5.5-0.3c-0.4,0.1-0.6,0.5-0.4,0.9c1,2.9,3.8,4.8,6.8,4.8
			c0.6,0,1.2-0.1,1.8-0.2c0.4,1.5,0.7,3,0.7,4.6c-0.9-1.7-2.4-3-4.4-3.6c-0.4-0.1-0.8,0.1-0.9,0.5c-0.5,1.8-0.3,3.8,0.6,5.5
			c0.8,1.5,2.1,2.6,3.7,3.2c-0.8,2.2-2.1,4.2-3.8,6c-0.8,0.8-1.6,1.5-2.6,2.1c-0.3,0.2-0.4,0.7-0.2,1c0.1,0.2,0.4,0.3,0.6,0.3
			c0.1,0,0.3,0,0.4-0.1c0.9-0.6,1.8-1.3,2.7-2.1c1.2,0.9,2.7,1.3,4.1,1.3c2.1,0,4.2-0.9,5.6-2.6c0.1-0.1,0.2-0.3,0.2-0.5
			c0-0.2-0.1-0.4-0.3-0.5c-1.5-1.2-3.4-1.8-5.3-1.6c-0.5,0.1-1,0.2-1.5,0.3c0.4-0.7,0.7-1.3,1-2C37.4,24.1,37.7,24.1,37.9,24.1z
			 M42.4,9.3c0.1,1.2-0.2,2.5-0.9,3.5c-0.7,1.1-1.7,1.9-2.8,2.3C38.4,12.6,40,10.2,42.4,9.3z M43.4,18.6c-0.7,2.5-3,4.1-5.6,4.1
			C38.5,20.2,40.8,18.6,43.4,18.6z M29.6,8.1c1.2-0.3,2.5-0.1,3.6,0.4s2.1,1.4,2.6,2.5C33.4,11.6,30.8,10.4,29.6,8.1z M36,5
			c0.2-1.2,0.8-2.4,1.7-3.2c1.2,2.3,0.7,5.1-1.2,6.8C36,7.5,35.8,6.3,36,5z M37.8,27.3c1.3-0.1,2.5,0.2,3.6,0.8
			c-1.9,1.7-4.7,2-6.9,0.7C35.4,27.9,36.5,27.4,37.8,27.3z M36.5,21.1c-1.1-0.5-2.1-1.4-2.7-2.5c-0.6-1.1-0.8-2.4-0.6-3.6
			C35.5,16.1,36.8,18.6,36.5,21.1z"/>
	</g>
</g>
</svg>
