<svg xmlns="http://www.w3.org/2000/svg" width="16" height="21" viewBox="0 0 16 21">
  <metadata><?xpacket begin="﻿" id="W5M0MpCehiHzreSzNTczkc9d"?>
<x:xmpmeta xmlns:x="adobe:ns:meta/" x:xmptk="Adobe XMP Core 5.6-c142 79.160924, 2017/07/13-01:06:39        ">
   <rdf:RDF xmlns:rdf="http://www.w3.org/1999/02/22-rdf-syntax-ns#">
      <rdf:Description rdf:about=""/>
   </rdf:RDF>
</x:xmpmeta>
                                                                                                    
                                                                                                    
                                                                                                    
                                                                                                    
                                                                                                    
                                                                                                    
                                                                                                    
                                                                                                    
                                                                                                    
                                                                                                    
                                                                                                    
                                                                                                    
                                                                                                    
                                                                                                    
                                                                                                    
                                                                                                    
                                                                                                    
                                                                                                    
                                                                                                    
                                                                                                    
                           
<?xpacket end="w"?></metadata>
<defs>
    <style>
      .cls-1 {
        fill: #3588d3;
        fill-rule: evenodd;
      }
    </style>
  </defs>
  <path id="Forma_1" data-name="Forma 1" class="cls-1" d="M13.928,0H2.072A2.049,2.049,0,0,0,0,2.02V18.98A2.049,2.049,0,0,0,2.072,21H13.928A2.049,2.049,0,0,0,16,18.98V2.02A2.049,2.049,0,0,0,13.928,0ZM2.84,3.49a0.623,0.623,0,0,1,.631-0.615h9.058a0.623,0.623,0,0,1,.631.615V4.7a0.623,0.623,0,0,1-.631.615H3.471A0.623,0.623,0,0,1,2.84,4.7V3.49ZM4.964,17.305a0.623,0.623,0,0,1-.631.615H3.471a0.623,0.623,0,0,1-.631-0.615V16.722a0.623,0.623,0,0,1,.631-0.615H4.333a0.623,0.623,0,0,1,.631.615v0.583Zm0-3.641a0.623,0.623,0,0,1-.631.615H3.471a0.623,0.623,0,0,1-.631-0.615V13.081a0.623,0.623,0,0,1,.631-0.615H4.333a0.623,0.623,0,0,1,.631.615v0.583Zm4.149,3.641a0.623,0.623,0,0,1-.631.615H7.62a0.623,0.623,0,0,1-.631-0.615V16.722a0.623,0.623,0,0,1,.631-0.615H8.483a0.623,0.623,0,0,1,.631.615v0.583Zm0-3.641a0.623,0.623,0,0,1-.631.615H7.62a0.623,0.623,0,0,1-.631-0.615V13.081a0.623,0.623,0,0,1,.631-0.615H8.483a0.623,0.623,0,0,1,.631.615v0.583Zm0-3.641a0.623,0.623,0,0,1-.631.615H3.471a0.623,0.623,0,0,1-.631-0.615V9.44a0.623,0.623,0,0,1,.631-0.615H8.483a0.623,0.623,0,0,1,.631.615v0.583Zm4.149,7.282a0.623,0.623,0,0,1-.631.615H11.77a0.623,0.623,0,0,1-.631-0.615V16.722a0.623,0.623,0,0,1,.631-0.615h0.862a0.623,0.623,0,0,1,.631.615v0.583Zm0-3.641a0.623,0.623,0,0,1-.631.615H11.77a0.623,0.623,0,0,1-.631-0.615V13.081a0.623,0.623,0,0,1,.631-0.615h0.862a0.623,0.623,0,0,1,.631.615v0.583Zm0-3.641a0.623,0.623,0,0,1-.631.615H11.77a0.623,0.623,0,0,1-.631-0.615V9.44a0.623,0.623,0,0,1,.631-0.615h0.862a0.623,0.623,0,0,1,.631.615v0.583Z"/>
</svg>
