<?xml version="1.0" encoding="utf-8"?>
<!-- Generator: Adobe Illustrator 19.2.0, SVG Export Plug-In . SVG Version: 6.00 Build 0)  -->
<svg version="1.1" id="Forma_1_1_" xmlns="http://www.w3.org/2000/svg" xmlns:xlink="http://www.w3.org/1999/xlink" x="0px" y="0px"
	 viewBox="0 0 16 21" enable-background="new 0 0 16 21" xml:space="preserve">
<g id="Forma_1">
	<g>
		<path fill-rule="evenodd" clip-rule="evenodd" fill="#3588D3" d="M13.9,0H2.1C0.9,0,0,0.9,0,2v17c0,1.1,0.9,2,2.1,2h11.9
			c1.1,0,2.1-0.9,2.1-2V2C16,0.9,15.1,0,13.9,0z M2.8,3.5c0-0.3,0.3-0.6,0.6-0.6h9.1c0.3,0,0.6,0.3,0.6,0.6v1.2
			c0,0.3-0.3,0.6-0.6,0.6H3.5C3.1,5.3,2.8,5,2.8,4.7V3.5z M5,17.3c0,0.3-0.3,0.6-0.6,0.6H3.5c-0.3,0-0.6-0.3-0.6-0.6v-0.6
			c0-0.3,0.3-0.6,0.6-0.6h0.9c0.3,0,0.6,0.3,0.6,0.6V17.3z M5,13.7c0,0.3-0.3,0.6-0.6,0.6H3.5c-0.3,0-0.6-0.3-0.6-0.6v-0.6
			c0-0.3,0.3-0.6,0.6-0.6h0.9c0.3,0,0.6,0.3,0.6,0.6V13.7z M9.1,17.3c0,0.3-0.3,0.6-0.6,0.6H7.6c-0.3,0-0.6-0.3-0.6-0.6v-0.6
			c0-0.3,0.3-0.6,0.6-0.6h0.9c0.3,0,0.6,0.3,0.6,0.6V17.3z M9.1,13.7c0,0.3-0.3,0.6-0.6,0.6H7.6C7.3,14.3,7,14,7,13.7v-0.6
			c0-0.3,0.3-0.6,0.6-0.6h0.9c0.3,0,0.6,0.3,0.6,0.6V13.7z M9.1,10c0,0.3-0.3,0.6-0.6,0.6h-5c-0.3,0-0.6-0.3-0.6-0.6V9.4
			c0-0.3,0.3-0.6,0.6-0.6h5c0.3,0,0.6,0.3,0.6,0.6V10z M13.3,17.3c0,0.3-0.3,0.6-0.6,0.6h-0.9c-0.3,0-0.6-0.3-0.6-0.6v-0.6
			c0-0.3,0.3-0.6,0.6-0.6h0.9c0.3,0,0.6,0.3,0.6,0.6V17.3z M13.3,13.7c0,0.3-0.3,0.6-0.6,0.6h-0.9c-0.3,0-0.6-0.3-0.6-0.6v-0.6
			c0-0.3,0.3-0.6,0.6-0.6h0.9c0.3,0,0.6,0.3,0.6,0.6V13.7z M13.3,10c0,0.3-0.3,0.6-0.6,0.6h-0.9c-0.3,0-0.6-0.3-0.6-0.6V9.4
			c0-0.3,0.3-0.6,0.6-0.6h0.9c0.3,0,0.6,0.3,0.6,0.6V10z"/>
	</g>
</g>
</svg>
