<svg xmlns="http://www.w3.org/2000/svg" width="18" height="18" viewBox="0 0 18 18">
  <metadata><?xpacket begin="﻿" id="W5M0MpCehiHzreSzNTczkc9d"?>
<x:xmpmeta xmlns:x="adobe:ns:meta/" x:xmptk="Adobe XMP Core 5.6-c142 79.160924, 2017/07/13-01:06:39        ">
   <rdf:RDF xmlns:rdf="http://www.w3.org/1999/02/22-rdf-syntax-ns#">
      <rdf:Description rdf:about=""/>
   </rdf:RDF>
</x:xmpmeta>
                                                                                                    
                                                                                                    
                                                                                                    
                                                                                                    
                                                                                                    
                                                                                                    
                                                                                                    
                                                                                                    
                                                                                                    
                                                                                                    
                                                                                                    
                                                                                                    
                                                                                                    
                                                                                                    
                                                                                                    
                                                                                                    
                                                                                                    
                                                                                                    
                                                                                                    
                                                                                                    
                           
<?xpacket end="w"?></metadata>
<defs>
    <style>
      .cls-1 {
        fill: #3588d3;
        fill-rule: evenodd;
      }
    </style>
  </defs>
  <path id="Forma_1_копия" data-name="Forma 1 копия" class="cls-1" d="M17.594,14.241l-2.779-2.788a1.446,1.446,0,0,0-2.043.039l-1.4,1.4L11.1,12.742A13.935,13.935,0,0,1,7.728,10.3a14.051,14.051,0,0,1-2.44-3.384c-0.052-.094-0.1-0.185-0.15-0.271L6.076,5.7l0.462-.464a1.455,1.455,0,0,0,.037-2.049L3.8,0.4A1.444,1.444,0,0,0,1.754.439l-0.783.79L0.992,1.25A4.541,4.541,0,0,0,.347,2.392,4.751,4.751,0,0,0,.059,3.55c-0.367,3.052,1.023,5.841,4.8,9.626,5.215,5.231,9.418,4.836,9.6,4.817a4.7,4.7,0,0,0,1.158-.291,4.513,4.513,0,0,0,1.134-.645l0.017,0.016,0.793-.78A1.458,1.458,0,0,0,17.594,14.241Z"/>
</svg>
