<?xml version="1.0" encoding="utf-8"?>
<!-- Generator: Adobe Illustrator 19.2.0, SVG Export Plug-In . SVG Version: 6.00 Build 0)  -->
<svg version="1.1" id="Forma_1_1_" xmlns="http://www.w3.org/2000/svg" xmlns:xlink="http://www.w3.org/1999/xlink" x="0px" y="0px"
	 viewBox="0 0 34 33" enable-background="new 0 0 34 33" xml:space="preserve">
<g id="Forma_1">
	<g>
		<path fill-rule="evenodd" clip-rule="evenodd" fill="#3588D3" d="M31.4,9L33,5.6l-1.7-3.4L32,0.8l-1-0.5l-0.6,1.2h-2.7l-0.6-1.2
			l0,0l0,0l-1,0.5l0.6,1.3L25.4,5h-2.7l-1.4-2.8L22,0.8L22.4,0h-1.2L21,0.3l-0.4,0.9l-0.2,0.4h-2.6l-0.6-1.2l0,0l0,0l-1,0.5l0.6,1.3
			L15.3,5h-2.7l-1.4-2.8l0.6-1.3l-1-0.5l0,0l0,0l-0.6,1.2H7.7L7.1,0.3L6.9,0H5.6L6,0.8l0.1,0.3l0.5,1L6.2,3.1L5.3,5H2.6L1.2,2.1
			l0.6-1.3l-1-0.5L0,2.1l1.7,3.4L0,9l1.7,3.4L0,15.8l1.7,3.4L0,22.6l1.7,3.4L0,29.5l1.3,2.5l1-0.5l-1-2l1.4-2.8h2.6l1.4,2.9l-1,2
			l1,0.5l0,0l0,0l0.9-1.9h2.7l0.9,1.9l1-0.5l-1-2l1.5-3h2.6l1.5,3l-1,2l1,0.5l0.9-1.9h2.7l0.9,1.9l1-0.5l-1-2l1.4-2.9h2.7l1.4,2.9
			l-1.4,2.8h1.3l0.2-0.3l0.5-0.9l0.5-0.9h2.6l0.9,1.9l1-0.5l-1-2l1.7-3.5l-1.7-3.4l1.7-3.4l-1.7-3.4l1.7-3.4L31.4,9z M27.7,2.8h2.7
			l1.4,2.8l-1.4,2.8h-2.7l-1.4-2.8L27.7,2.8z M22.7,6.2h2.6L26.8,9l-1.4,2.8h-2.6l-0.3-0.7L21.3,9L22.7,6.2z M7.7,16.4h2.6l1.4,2.8
			l-1.4,2.8H7.7l-0.3-0.7l-1.1-2.2L7.7,16.4z M7.3,14.6l-1.1-2.2l1.4-2.8h2.6l1.4,2.8l-1.4,2.8H7.7L7.3,14.6z M11.3,15.8l1.4-2.8
			h2.7l1.4,2.8l-1.4,2.8h-2.7L11.3,15.8z M16.3,12.4l1.4-2.8h2.6l0.9,1.9l0.5,0.9l-0.5,0.9l-0.9,1.9h-2.6L16.3,12.4z M17.7,16.4h2.6
			l1.4,2.9l-1.4,2.8h-2.7l-1.4-2.8L17.7,16.4z M21.3,15.8l1.4-2.8h2.6l1.4,2.8l-1.4,2.8h-2.6L22.4,18L21.3,15.8z M17.7,2.8h2.7
			l1.4,2.8l-1.4,2.9h-2.6l-1.4-2.8L17.7,2.8z M15.3,6.2L16.7,9l-1.4,2.8h-2.7L11.3,9l1.4-2.8H15.3z M7.2,3.7l0.5-1h2.6l1.4,2.8
			l-1.4,2.8H7.6L6.3,5.5L7.2,3.7z M1.2,9l1.4-2.8h2.7L6.7,9l-1.4,2.9H2.6L1.2,9z M1.2,15.8L2.6,13h2.6l0.9,1.9l0.5,0.9l-0.5,0.9
			l-0.9,1.9H2.6L1.2,15.8z M2.6,25.5l-1.4-2.8l1.4-2.8h2.6l1.4,2.9l-1.4,2.8H2.6z M10.3,29H7.7l-1.4-2.9l1.4-2.8h2.7l1.4,2.8
			L10.3,29z M12.7,25.5l-1.4-2.8l1.4-2.8h2.7l1.4,2.8l-1.4,2.8H12.7z M20.4,29h-2.7l-1.4-2.8l1.4-2.8h2.6l1.4,2.9L20.4,29z
			 M25.4,25.6h-2.6l-1.4-2.9l1.4-2.8h2.7l1.4,2.8L25.4,25.6z M31.8,26.1L30.4,29h-2.6L26.4,26l1.4-2.8h2.7L31.8,26.1z M31.8,19.2
			l-1.4,2.8h-2.7l-1.4-2.8l1.4-2.8h2.7L31.8,19.2z M30.4,15.3h-2.7l-1.4-2.8l1.4-2.8h2.7l1.4,2.8L30.4,15.3z"/>
	</g>
</g>
</svg>
