<?xml version="1.0" encoding="utf-8"?>
<!-- Generator: Adobe Illustrator 19.2.0, SVG Export Plug-In . SVG Version: 6.00 Build 0)  -->
<svg version="1.1" id="fb_1_" xmlns="http://www.w3.org/2000/svg" xmlns:xlink="http://www.w3.org/1999/xlink" x="0px" y="0px"
	 viewBox="0 0 43 43" enable-background="new 0 0 43 43" xml:space="preserve">
<g id="Capa_1_xA0_Изображение_1_">
	<path fill="#EE3A44" d="M21.4,0.1C9.6,0.1,0,9.7,0,21.6S9.6,43,21.4,43s21.4-9.6,21.4-21.4S33.3,0.1,21.4,0.1z M28.5,12.9
		c0,0.3-0.3,0.6-0.6,0.6l-2.5,0c-1.8,0-2.1,0.7-2.1,2v2.8h4.4c0.2,0,0.3,0.1,0.4,0.2c0.1,0.1,0.2,0.3,0.2,0.4l0,4.8
		c0,0.3-0.3,0.6-0.6,0.6h-4.4v12.1c0,0.3-0.3,0.6-0.6,0.6h-4.9c-0.3,0-0.6-0.3-0.6-0.6V24.3h-3.8c-0.3,0-0.6-0.3-0.6-0.6v-4.8
		c0-0.3,0.3-0.6,0.6-0.6h3.8v-3.3c0-4.3,2.7-7.2,7-7.2l3.8,0c0.3,0,0.6,0.3,0.6,0.6V12.9z"/>
	<path d="M36.5-22.1"/>
</g>
</svg>
