<?xml version="1.0" encoding="utf-8"?>
<!-- Generator: Adobe Illustrator 19.2.0, SVG Export Plug-In . SVG Version: 6.00 Build 0)  -->
<svg version="1.1" id="Forma_1_1_" xmlns="http://www.w3.org/2000/svg" xmlns:xlink="http://www.w3.org/1999/xlink" x="0px" y="0px"
	 viewBox="0 0 37 32" enable-background="new 0 0 37 32" xml:space="preserve">
<g id="Forma_1">
	<g>
		<path fill="#3588D3" d="M36.7,10l-20.9-10c-0.2-0.1-0.5,0-0.7,0.2l-4.6,9.5H13l3.3-7l18.2,8.7l-5.7,11.9l-3.2-1.5v6.3l2,0.9
			c0.2,0.1,0.5,0,0.7-0.2l8.7-18.1C37,10.5,36.9,10.2,36.7,10z M23.7,11H0.5C0.2,11,0,11.2,0,11.4v20.1C0,31.8,0.2,32,0.5,32h23.2
			c0.3,0,0.5-0.2,0.5-0.5V11.4C24.2,11.2,24,11,23.7,11z M22.4,26.3h-1.5c-0.9-2.2-1.9-5.3-3.5-4.9c-1.9,0.5-2.8,4.9-2.8,4.9
			s-1-4.9-3.6-7.6c-2.6-2.6-5.2,7.6-5.2,7.6H2.2V13.2h20.1V26.3z M5.5,17.6c0.9,0,1.6-0.7,1.6-1.6c0-0.9-0.7-1.6-1.6-1.6
			S3.8,15.1,3.8,16C3.8,16.9,4.6,17.6,5.5,17.6z M16.5,17.2c0.4,0,0.7,0,1-0.1c0.4,0.2,0.8,0.2,1.3,0.2c1.2,0,2.2-0.6,2.2-1.3
			c0-0.7-1-1.3-2.2-1.3c-0.5,0-0.9,0.1-1.2,0.2c-0.1-0.1-0.3-0.2-0.6-0.2h-0.3c-0.4,0-0.7,0.3-0.8,0.7c-1,0.1-1.7,0.5-1.7,0.9
			C14.2,16.7,15.2,17.2,16.5,17.2z"/>
	</g>
</g>
</svg>
