<?xml version="1.0" encoding="utf-8"?>
<!-- Generator: Adobe Illustrator 19.2.0, SVG Export Plug-In . SVG Version: 6.00 Build 0)  -->
<svg version="1.1" id="Forma_1_1_" xmlns="http://www.w3.org/2000/svg" xmlns:xlink="http://www.w3.org/1999/xlink" x="0px" y="0px"
	 viewBox="0 0 38 39" enable-background="new 0 0 38 39" xml:space="preserve">
<g id="Forma_1">
	<g>
		<path fill="#3588D3" d="M37.2,13.5c-7-1.3-9.3-9.6-16.7-9.9V0H14v1.2c0,0.9-0.7,1.6-1.6,1.6S10.9,2,10.9,1.2V0H4.5v9.2h0
			C2,9.2,0,11.3,0,13.8v16.2c0,2.5,2,4.6,4.5,4.6h15.9c2.5,0,4.5-2,4.5-4.6V13.8c0-2.5-2-4.6-4.5-4.6V5.9c6.7,0.4,9.4,8.6,16.1,9.8
			C38,16,38.6,13.7,37.2,13.5z M6.8,2.3h2.1C9.3,3.9,10.8,5,12.5,5s3.2-1.2,3.7-2.7h2.1v6.6H6.8V2.3z M22.7,13.8v16.2
			c0,1.2-1,2.3-2.2,2.3H4.5c-1.2,0-2.2-1-2.2-2.3V13.8c0-1.2,1-2.3,2.2-2.3h15.9C21.7,11.5,22.7,12.5,22.7,13.8z M4.1,39h16.8v-2.3
			H4.1V39z"/>
	</g>
</g>
</svg>
