<?xml version="1.0" encoding="utf-8"?>
<!-- Generator: Adobe Illustrator 19.2.0, SVG Export Plug-In . SVG Version: 6.00 Build 0)  -->
<svg version="1.1" id="inst_1_" xmlns="http://www.w3.org/2000/svg" xmlns:xlink="http://www.w3.org/1999/xlink" x="0px" y="0px"
	 viewBox="0 0 44 43" enable-background="new 0 0 44 43" xml:space="preserve">
<g id="inst">
	<g>
		<path fill="#EE3A44" d="M21.6,25.8c2.4,0,4.3-1.9,4.3-4.3c0-0.9-0.3-1.8-0.8-2.5c-0.8-1.1-2.1-1.8-3.5-1.8c-1.4,0-2.7,0.7-3.5,1.8
			c-0.5,0.7-0.8,1.6-0.8,2.5C17.2,23.9,19.2,25.8,21.6,25.8z M31,16.2v-4.1l-0.5,0l-3.6,0l0,4.1L31,16.2z M21.6,0
			C9.7,0,0,9.6,0,21.5S9.7,43,21.6,43s21.6-9.6,21.6-21.5S33.4,0,21.6,0z M33.8,29c0,2.6-2.1,4.7-4.7,4.7H14c-2.6,0-4.7-2.1-4.7-4.7
			V14c0-2.6,2.1-4.7,4.7-4.7h15c2.6,0,4.7,2.1,4.7,4.7V29z M28.3,21.5c0,3.7-3,6.7-6.7,6.7s-6.7-3-6.7-6.7c0-0.9,0.2-1.7,0.5-2.5
			h-3.7v10c0,1.3,1.1,2.3,2.3,2.3h15c1.3,0,2.3-1,2.3-2.3V19h-3.7C28.1,19.8,28.3,20.6,28.3,21.5z"/>
	</g>
</g>
</svg>
