<?xml version="1.0" encoding="utf-8"?>
<!-- Generator: Adobe Illustrator 19.2.0, SVG Export Plug-In . SVG Version: 6.00 Build 0)  -->
<svg version="1.1" id="Слой_1" xmlns="http://www.w3.org/2000/svg" xmlns:xlink="http://www.w3.org/1999/xlink" x="0px" y="0px"
	 viewBox="0 0 533 196" enable-background="new 0 0 533 196" xml:space="preserve">
<g>
	<path fill="#EF3E43" d="M285.8,89.1h-50.3c-3.4,0-6.3,2.8-6.3,6.3v50.3c0,3.4,2.8,6.3,6.3,6.3h50.3c3.4,0,6.3-2.8,6.3-6.3V95.3
		C292,91.9,289.2,89.1,285.8,89.1z M259.3,141.8c0,2.1-1.7,3.8-3.8,3.8H239c-2.1,0-3.8-1.7-3.8-3.8v-16.6c0-2.1,1.7-3.8,3.8-3.8
		h16.6c2.1,0,3.8,1.7,3.8,3.8V141.8z M259.3,114.2c0,2.1-1.7,3.8-3.8,3.8H239c-2.1,0-3.8-1.7-3.8-3.8V97.6c0-2.1,1.7-3.8,3.8-3.8
		h16.6c2.1,0,3.8,1.7,3.8,3.8V114.2z M286.6,141.8c0,2.1-1.7,3.8-3.8,3.8h-16.6c-2.1,0-3.8-1.7-3.8-3.8v-16.6c0-2.1,1.7-3.8,3.8-3.8
		h16.6c2.1,0,3.8,1.7,3.8,3.8V141.8z M286.6,114.2c0,2.1-1.7,3.8-3.8,3.8h-16.6c-2.1,0-3.8-1.7-3.8-3.8V97.6c0-2.1,1.7-3.8,3.8-3.8
		h16.6c2.1,0,3.8,1.7,3.8,3.8V114.2z"/>
	<path fill="none" d="M170.8,11.2c-1.1,0.3-2.3,0.7-3.5,0.9c-0.6,0.1-1.2,0.3-1.8,0.4l-1.7,0.3l-1.9,0.2c-0.6,0-1.3,0.1-1.9,0.1
		c-1.3,0.1-2.5,0.1-3.8,0c-0.5,0-1-0.1-1.4-0.1l1.6,42.8c6.2-4.5,12.6-9.1,19.2-13.7l-2.1-31.9C172.7,10.6,171.7,10.9,170.8,11.2z"
		/>
	<path fill="none" d="M334.8,50.5c-11.7-7.5-24-15.1-36.7-22.2c-6.4-3.5-12.9-6.9-19.5-9.9c-3.3-1.5-6.6-2.8-10-4l-2.5-0.8
		c-0.8-0.3-1.7-0.6-2.3-0.6c-1.4-0.2-2.4-0.7-4.5-0.7l-1.4-0.1l-0.1,0l-0.5,0.1c-0.6,0.1-1.3,0.2-1.9,0.3c-1.5,0.4-2.9,0.7-4.5,1.3
		c-0.8,0.3-1.5,0.6-2.3,0.9c-3.7,1.6-7.3,3.4-10.8,5.3c-4.5,2.5-8.8,5.2-13.2,8c-1,0.7-2,1.3-3,2c-11.4,7.6-22.4,15.7-32.8,23.8
		c-21.7,16.9-41.3,33.5-57.8,47.9c-16.6,14.4-30.1,26.7-39.6,35.3c-4.3,4-7.8,7.2-10.2,9.5c3.8,2.1,7.7,4.1,11.9,6
		c10.8,5,23.1,9.5,36.6,12.6c13.5,3.1,27.8,5.2,43.1,5c2.1,0.1,3.8-0.1,5.6-0.2c1.8-0.1,3.6-0.2,5.4-0.4c3.7-0.4,7.6-1,11.4-1.5
		c3.8-0.8,7.7-1.4,11.6-2.3c3.9-1,7.8-1.8,11.8-3c11.4-3.2,22.9-7.1,34.5-11.3l11.5-5.1c0,0-0.1,0.1-0.4,0.2
		c31.1-13.7,65.2-22.1,101.1-24c0.2,0,0.4,0,0.7-0.1c28.4-2.1,55.3,0.2,78.4,5.2c-9-6.7-24.8-18.4-46.9-34.3
		C379.5,80.6,358.2,65.7,334.8,50.5z"/>
	<path fill="none" d="M246.3,15.9c-1.6,0.8-3.2,1.5-4.7,2.3c-1.2,0.6-2.5,1.3-3.7,2c3.5-1.9,7.1-3.6,10.8-5.3
		C247.9,15.2,247.1,15.5,246.3,15.9z"/>
	<path fill="#3E87C7" d="M257.5,12.3l0.4,0l0,0l0.1,0C256.7,12.3,257.7,12.3,257.5,12.3z"/>
	<path opacity="0.8" fill="#EE2E2C" d="M257.5,12.3l0.4,0l0,0l0.1,0C256.7,12.3,257.7,12.3,257.5,12.3z"/>
	<path fill="#AE3864" d="M251,14c1.5-0.6,3-0.9,4.5-1.3c0.6-0.1,1.3-0.1,1.9-0.3l0.5-0.1l0.1,0l0,0l-0.4,0c0.2,0-0.8,0,0.5,0l-0.1,0
		l1.4,0.1c2.2,0,3.2,0.5,4.5,0.7c0.6,0.1,1.5,0.4,2.3,0.6l2.5,0.8c3.3,1.2,6.7,2.5,10,4c6.6,3,13.1,6.3,19.5,9.9
		c12.8,7.1,25,14.6,36.7,22.2c23.4,15.1,44.7,30.1,62.8,43c22.1,15.9,37.9,27.6,46.9,34.3c0.5,0.1,0.9,0.2,1.4,0.3
		c-8.3-7-23.7-19.9-45.6-37.6c-17.3-13.9-37.7-29.9-60.4-46.3C328.5,36.2,316.6,27.9,304,20c-6.3-4-12.9-7.8-19.8-11.3
		c-2.4-1.2-4.8-2.4-7.3-3.5c-9.7,2.4-19.1,5.7-28.1,9.7C249.5,14.6,250.3,14.3,251,14z"/>
	<path fill="#AE3864" d="M175.8,9.3c0.6-0.3,1.1-0.5,1.7-0.8l-4.2-2.4l0.3,4.1c0.2-0.1,0.4-0.1,0.6-0.2L175.8,9.3z"/>
	<path fill="#AE3864" d="M148.3,11.9c0.9,0.3,1.4,0.4,2.1,0.6c0.7,0.1,1.3,0.3,1.9,0.3c0.8,0.1,1.6,0.2,2.4,0.3l-0.2-5L148.3,11.9z"
		/>
	<path fill="#AE3864" d="M154.8,13.1c-0.8-0.1-1.6-0.1-2.4-0.3c-0.6-0.1-1.3-0.2-1.9-0.3c-0.7-0.2-1.2-0.3-2.1-0.6l6.3-3.8
		L154.8,13.1c0.5,0,1,0.1,1.4,0.1c1.3,0,2.5,0.1,3.8,0c0.6,0,1.3-0.1,1.9-0.1l1.9-0.2l1.7-0.3c0.6-0.1,1.2-0.2,1.8-0.4
		c1.2-0.3,2.3-0.6,3.5-0.9c0.9-0.3,1.9-0.6,2.8-0.9l-0.3-4.1l4.2,2.4c-0.7,0.3-1.1,0.6-1.7,0.8l-1.7,0.7c-0.2,0.1-0.4,0.1-0.6,0.2
		l2.1,31.9c0.4-0.3,0.8-0.6,1.2-0.9l2.3-35.1c0-0.3,0-0.7-0.2-1c-0.5-1.3-2.1-2-3.6-1.5l-0.5,0.2l-1.4,0.4l-1.5,0.4
		c-1,0.3-2,0.5-3,0.7c-1,0.2-2,0.3-3.1,0.5c-0.5,0.1-1,0.1-1.5,0.1l-1.6,0.1l-1.4,0c-0.5,0-1,0-1.5,0c-1,0-2-0.2-2.9-0.3
		c-1-0.1-1.9-0.3-2.8-0.6c-0.5-0.1-0.9-0.3-1.3-0.4c-0.4-0.1-0.9-0.3-1.1-0.4c-0.6-0.4-1.3-0.6-2.1-0.6c-2.2-0.1-4,1.5-4.1,3.5
		l0,0.9l-2.2,57.2h0.3c4.1-3.1,8.4-6.3,12.8-9.4L154.8,13.1z"/>
	<path fill="#EF3E43" d="M273.4,3.7l-2.9-1.1c-1-0.4-1.9-0.7-3.2-1c-2.4-0.6-5-1.3-6.7-1.4l-1.4-0.2l-0.4,0c-0.3,0,0.5,0-0.8,0
		l-0.2,0l-1,0.1c-1.3,0.1-2.6,0.2-3.8,0.3c-2.2,0.5-4.5,0.9-6.6,1.6c-4.1,1.3-7.9,2.8-11.5,4.4c-7.3,3.3-13.9,7-20.5,10.8
		c-13,7.6-25.2,15.7-36.8,23.8c-0.2,0.1-0.4,0.3-0.6,0.4c-0.4,0.3-0.8,0.6-1.2,0.9c-6.6,4.6-13,9.2-19.2,13.7
		c-4.4,3.2-8.6,6.3-12.8,9.4c-9.9,7.4-19.2,14.5-27.7,21.2c-17.6,13.7-32,25.4-42.1,33.7c-7.4,6.2-12.5,10.4-14.6,12.1
		c1.9,1.4,3.8,2.8,5.9,4.3c4.9,3.3,10.3,6.7,16.2,10c2.5-2.3,5.9-5.5,10.2-9.5c9.4-8.6,23-20.9,39.6-35.3
		c16.6-14.4,36.1-31,57.8-47.9c10.4-8.1,21.3-16.2,32.8-23.8c1-0.7,2-1.3,3-2c4.3-2.8,8.7-5.5,13.2-8c1.2-0.7,2.5-1.4,3.7-2
		c1.6-0.8,3.1-1.5,4.7-2.3c0.8-0.4,1.6-0.7,2.4-1c9-4,18.4-7.3,28.1-9.7C275.7,4.7,274.6,4.2,273.4,3.7z"/>
	<path fill="#3E87C7" d="M527.1,164c-3.3-2.3-8.2-5.7-14.6-9.6c-1.6-1-3.4-2-5.2-3c-1.8-1-3.8-2-5.8-3c-0.2-0.1-0.4-0.2-0.6-0.3
		c-3.8-2.1-8.1-4-12.7-6.1c-9.7-4.2-20.9-8.3-33.5-11.7c-2.9-0.8-5.8-1.5-8.8-2.2c-0.5-0.1-0.9-0.2-1.4-0.3c-23.1-5-50-7.3-78.4-5.2
		c-0.2,0-0.4,0-0.7,0.1c-35.9,1.9-70,10.3-101.1,24c-1,0.5-3.8,1.9-6.9,3.4c0.2-0.1,0.4-0.2,0.6-0.2c-0.8,0.3-2.6,1-4,1.6
		c-3.2,1.8-0.1,0.2-5.5,2.6c0,0-0.1,0-0.1,0.1c0,0-0.1,0-0.1,0.1c-0.1,0-0.1,0.1-0.2,0.1c-0.1,0-0.2,0.1-0.3,0.1
		c-40.3,15.2-84,23.5-129.6,23.5c-17.1,0-33.8-1.2-50.3-3.4c4.4,2,9,4,13.8,5.9c12.9,5,27.3,9.1,42.8,11.7c3.9,0.6,7.8,1.3,11.8,1.7
		c2,0.2,4,0.4,6,0.7c2,0.1,4.1,0.2,6.2,0.4c4.1,0.3,8.3,0.3,12.5,0.3l3.2,0c1,0,0.4,0,0.7,0l0.2,0l0.4,0l0.7,0l1.5-0.1
		c2-0.1,4-0.3,6-0.4c6.6-0.5,13.1-1.4,19.5-2.7c10.9-2.2,21.4-5.3,31.8-8.9c16.5-5.8,32.4-12.9,48.1-19.9
		c15.7-7,31.2-13.7,46.9-18.8l5.9-1.9c2-0.5,3.9-1.1,5.9-1.6l2.9-0.8l0.7-0.2c0.1,0,0.4-0.1,0.3-0.1l0.4-0.1l1.5-0.4
		c2-0.5,4.1-0.9,6.1-1.4c4.1-1,7.9-1.6,11.8-2.4c3.9-0.7,7.9-1.3,11.8-1.9c31.3-4.5,61.4-3,86.3,2.1c12.5,2.5,23.7,5.9,33.5,9.4
		c4.8,1.9,9.4,3.6,13.5,5.5c2.1,0.9,4,1.8,5.9,2.7c1.9,0.9,3.6,1.8,5.3,2.6c6.7,3.4,11.7,6.5,15.1,8.6c3.4,2.1,5.2,3.4,5.2,3.4
		S530.4,166.3,527.1,164z"/>
	<path fill="#20438C" d="M253.2,151.6c-11.6,4.2-23.1,8.1-34.5,11.3c-3.9,1.2-7.9,2-11.8,3c-3.9,0.9-7.8,1.5-11.6,2.3
		c-3.8,0.5-7.7,1.1-11.4,1.5c-1.8,0.1-3.6,0.2-5.4,0.4c-1.8,0.1-3.5,0.3-5.6,0.2c-15.3,0.2-29.7-1.9-43.1-5
		c-13.4-3.2-25.7-7.6-36.6-12.6c-4.2-1.9-8.2-4-11.9-6c-6-3.3-11.4-6.7-16.2-10c-2-1.5-4-2.9-5.9-4.3c-1.7-1.3-3.3-2.5-4.8-3.8
		c-1.6-1.3-3.2-2.5-4.5-3.8c-1.4-1.3-2.7-2.5-3.9-3.7c-2.6-2.3-4.2-4.5-5.9-6.3c-0.8-1-1.5-1.7-2.3-2.7c-0.7-1-1.4-1.9-2-2.7
		c-2.4-3.3-3.6-5.1-3.6-5.1c-0.3-0.4-0.7-0.9-1-1.3c-0.1,13.2-10.9,23.9-24.1,23.9c-2.4,0-4.8-0.4-7-1c1.1,1.6,2.4,3,3.9,4.3
		c0,0,1.7,1.4,4.7,4c0.8,0.7,1.6,1.4,2.5,2.3c1.1,0.9,2.2,1.9,3.5,3c2.6,2.1,5.5,4.9,8.8,7.3c6.4,5.2,14.5,11.1,24.1,17
		c6.1,3.6,12.9,7.2,20.2,10.7c16.4,2.3,33.2,3.4,50.3,3.4c45.6,0,89.3-8.3,129.6-23.5c0.2-0.1,0.3-0.1,0.5-0.2c0,0,0.1,0,0.1,0
		c0.1,0,0.1,0,0.2-0.1c2.2-0.9,5.7-2.5,8.9-4c3.1-1.5,5.9-2.9,6.9-3.4c0.3-0.1,0.4-0.2,0.4-0.2L253.2,151.6z"/>
</g>
</svg>
