<?xml version="1.0" encoding="utf-8"?>
<!-- Generator: Adobe Illustrator 19.2.0, SVG Export Plug-In . SVG Version: 6.00 Build 0)  -->
<svg version="1.1" id="Capa_1" xmlns="http://www.w3.org/2000/svg" xmlns:xlink="http://www.w3.org/1999/xlink" x="0px" y="0px"
	 viewBox="-48 141 454 425" enable-background="new -48 141 454 425" xml:space="preserve">
<path fill="#4E96D8" d="M198.7,562c-52,0-87.4-12-115.8-21.6c-2.6-0.9-5.1-1.7-7.5-2.5l-2.6-0.9v12c0,7.2-5.8,13-13,13h-90.2
	c-7.2,0-13-5.8-13-13V307.5c0-7.2,5.8-13,13-13h90.2c7.2,0,13,5.8,13,13v9l2.9-1.4c2-1,3.9-1.9,5.8-2.9c17-8.4,30.3-15,45.9-30.5
	l1-1c25.2-25.2,38.7-87.9,38.7-123.5c0-7.2,5.8-13,13-13h12.4c33.5,0,60.7,27.3,60.7,60.7c0,20.5-5.2,69.6-14.7,86.6l-1.7,3h123.6
	c23.8,0,43.1,19.3,43.1,43.1c0,10.7-4,21-11.2,29l-1.2,1.3l1.2,1.3c7.2,8.2,11.2,18.6,11.2,29.5c0,19.4-13.1,36.5-31.8,41.6
	l-2.2,0.6l0.8,2.1c2,5.1,3,10.4,3,15.9c0,19.4-13.1,36.5-31.8,41.6l-2.2,0.6l0.8,2.1c2,5.1,3,10.4,3,15.9
	c0,23.8-19.3,43.1-43.1,43.1H198.7z M192.3,172.1c-3.2,34.7-18.5,99.8-45.6,127c-19.8,19.8-35.2,27.4-60.6,39.9
	c-3.8,1.9-7.9,3.9-12.2,6l-1.1,0.6v163.9l1.4,0.5c3.7,1.2,7.4,2.5,11,3.7c33.8,11.5,65.8,22.3,113.6,22.3h101.5c9.4,0,17-7.6,17-17
	s-7.6-17-17-17h-30.1c-7.2,0-13-5.8-13-13s5.8-13,13-13h60.1c9.4,0,17-7.6,17-17s-7.6-17-17-17h-60.1c-7.2,0-13-5.8-13-13
	c0-7.2,5.8-13,13-13h90.2c9.4,0,17-7.6,17-17c0-9.6-8-18-17-18h-90.2c-7.2,0-13-5.8-13-13s5.8-13,13-13h90.2c9.4,0,17-7.6,17-17
	c0-9.4-7.6-17-17-17H210.1c-5.3,0-10-3.2-12-8c-2-4.9-0.9-10.5,2.8-14.2c17.2-17.2,26.2-69.9,26.2-93.4c0-18.3-14.3-33.6-32.6-34.6
	l-1.9-0.1L192.3,172.1z M-17.4,535.9h64.1V320.5h-64.1V535.9z"/>
</svg>
