<svg xmlns="http://www.w3.org/2000/svg" width="36.969" height="32" viewBox="0 0 36.969 32">
  <metadata><?xpacket begin="﻿" id="W5M0MpCehiHzreSzNTczkc9d"?>
<x:xmpmeta xmlns:x="adobe:ns:meta/" x:xmptk="Adobe XMP Core 5.6-c142 79.160924, 2017/07/13-01:06:39        ">
   <rdf:RDF xmlns:rdf="http://www.w3.org/1999/02/22-rdf-syntax-ns#">
      <rdf:Description rdf:about=""/>
   </rdf:RDF>
</x:xmpmeta>
                                                                                                    
                                                                                                    
                                                                                                    
                                                                                                    
                                                                                                    
                                                                                                    
                                                                                                    
                                                                                                    
                                                                                                    
                                                                                                    
                                                                                                    
                                                                                                    
                                                                                                    
                                                                                                    
                                                                                                    
                                                                                                    
                                                                                                    
                                                                                                    
                                                                                                    
                                                                                                    
                           
<?xpacket end="w"?></metadata>
<defs>
    <style>
      .cls-1 {
        fill: #3588d3;
        fill-rule: evenodd;
      }
    </style>
  </defs>
  <path id="Forma_1" data-name="Forma 1" class="cls-1" d="M36.693,10.047L15.747,0.054a0.489,0.489,0,0,0-.653.226L10.535,9.808h2.484l3.346-7L34.525,11.47,28.846,23.339l-3.2-1.524v6.274l1.966,0.937a0.488,0.488,0,0,0,.653-0.231l8.657-18.1A0.483,0.483,0,0,0,36.693,10.047ZM23.7,10.959H0.49A0.49,0.49,0,0,0,0,11.445V31.506a0.492,0.492,0,0,0,.491.488H23.7a0.491,0.491,0,0,0,.491-0.488V11.445A0.488,0.488,0,0,0,23.7,10.959Zm-1.34,15.374H20.891c-0.856-2.194-1.911-5.266-3.512-4.856-1.876.479-2.813,4.856-2.813,4.856s-0.961-4.939-3.608-7.585-5.214,7.585-5.214,7.585h-3.5V13.177H22.363V26.333ZM5.487,14.361A1.64,1.64,0,1,1,3.844,16,1.64,1.64,0,0,1,5.487,14.361Zm11.016,2.8a5.321,5.321,0,0,0,1.02-.1,3.3,3.3,0,0,0,1.265.243c1.212,0,2.192-.59,2.192-1.32S20,14.664,18.788,14.664a3.234,3.234,0,0,0-1.225.227,0.786,0.786,0,0,0-.551-0.227H16.695a0.78,0.78,0,0,0-.773.7c-0.98.1-1.709,0.457-1.709,0.879C14.213,16.748,15.237,17.158,16.5,17.158Z"/>
</svg>
