<?xml version="1.0" encoding="utf-8"?>
<!-- Generator: Adobe Illustrator 19.2.0, SVG Export Plug-In . SVG Version: 6.00 Build 0)  -->
<svg version="1.1" id="Forma_1_1_" xmlns="http://www.w3.org/2000/svg" xmlns:xlink="http://www.w3.org/1999/xlink" x="0px" y="0px"
	 viewBox="0 0 42 33" enable-background="new 0 0 42 33" xml:space="preserve">
<g id="Forma_1">
	<g>
		<path fill="#3588D3" d="M15.5,6.4c-6,0-10.9,4.8-10.9,10.7c0,5.9,4.9,10.7,10.9,10.7c6,0,10.9-4.8,10.9-10.7c0-3-1.3-5.9-3.6-7.9
			c-0.4-0.4-1-0.3-1.4,0.1c-0.4,0.4-0.3,1,0.1,1.3c1.9,1.7,2.9,4,2.9,6.5c0,4.9-4,8.8-9,8.8c-5,0-9-4-9-8.8s4-8.8,9-8.8
			c0.5,0,1-0.4,1-1C16.5,6.8,16,6.4,15.5,6.4z M19.2,13.2c-0.2-0.4-0.5-0.6-0.9-0.6h-5.7c-0.5,0-1,0.4-1,1s0.4,1,1,1h3.4l-1.1,1.1
			c-0.3,0.3-0.4,0.7-0.2,1c0.2,0.4,0.5,0.6,0.9,0.6c1.1,0,1.9,0.9,1.9,1.9c0,1-0.9,1.9-1.9,1.9s-1.9-0.9-1.9-1.9c0-0.5-0.4-1-1-1
			s-1,0.4-1,1c0,2.1,1.7,3.8,3.9,3.8s3.9-1.7,3.9-3.8c0-1.4-0.8-2.7-2-3.3l1.6-1.6C19.2,13.9,19.3,13.5,19.2,13.2z M41,22.4h-3.6
			c-0.5,0-1,0.4-1,1v4.5H31V16.7c0-5.6-3.2-10.6-7.9-13.1l1.3-1.3L30,7.8L29.8,8c-0.4,0.4-0.4,1,0,1.3c0.2,0.2,0.4,0.3,0.7,0.3
			c0.2,0,0.5-0.1,0.7-0.3L32,8.5c0.4-0.4,0.4-1,0-1.3l-7-6.8c-0.4-0.4-1-0.4-1.4,0l-2.5,2.4c-1.7-0.7-3.6-1-5.6-1h-0.3
			C6.9,1.7,0,8.4,0,16.7v7.8c0,0.5,0.4,1,1,1c0.5,0,1-0.4,1-1v-7.8c0-7.3,6-13.2,13.4-13.2h0.3C23,3.6,29,9.5,29,16.7v13.4H1
			c-0.5,0-1,0.4-1,1c0,0.5,0.4,1,1,1h29c0.5,0,1-0.4,1-1v-1.3h10c0.5,0,1-0.4,1-1v-5.5C42,22.9,41.6,22.4,41,22.4z M40,27.9h-1.6
			v-3.6H40V27.9z"/>
	</g>
</g>
</svg>
