<?xml version="1.0" encoding="utf-8"?>
<!-- Generator: Adobe Illustrator 19.2.0, SVG Export Plug-In . SVG Version: 6.00 Build 0)  -->
<svg version="1.1" id="Forma_1_1_" xmlns="http://www.w3.org/2000/svg" xmlns:xlink="http://www.w3.org/1999/xlink" x="0px" y="0px"
	 viewBox="0 0 15 16" enable-background="new 0 0 15 16" xml:space="preserve">
<g id="Forma_1">
	<g>
		<path fill-rule="evenodd" clip-rule="evenodd" fill="#F93A40" d="M14.9,7c-0.1-0.3-0.3-0.5-0.7-0.5c-0.3,0.1-0.5,0.4-0.5,0.7
			c0,0,0,0,0,0c0.6,3.5-1.8,6.9-5.3,7.5C5,15.3,1.7,12.9,1.1,9.4C0.5,5.8,2.9,2.5,6.3,1.9c2.1-0.4,4.3,0.4,5.8,2L9.6,4.8
			C9.3,4.9,9.1,5.2,9.2,5.5c0,0,0,0,0,0C9.3,5.8,9.6,6,9.9,5.9c0,0,0,0,0,0l3.5-1.2c0.2-0.1,0.4-0.3,0.4-0.6V0.6
			c0-0.3-0.3-0.6-0.6-0.6c-0.3,0-0.6,0.3-0.6,0.6v2.2C9.7-0.1,4.9,0,2.1,3c-2.9,3-2.7,7.9,0.3,10.7c3,2.9,7.7,2.8,10.6-0.3
			C14.6,11.8,15.3,9.3,14.9,7z"/>
	</g>
</g>
</svg>
