<?xml version="1.0" encoding="utf-8"?>
<!-- Generator: Adobe Illustrator 19.2.0, SVG Export Plug-In . SVG Version: 6.00 Build 0)  -->
<svg version="1.1" id="Слой_1" xmlns="http://www.w3.org/2000/svg" xmlns:xlink="http://www.w3.org/1999/xlink" x="0px" y="0px"
	 viewBox="0 0 616.6 600.1" enable-background="new 0 0 616.6 600.1" xml:space="preserve">
<path fill="#5196D0" d="M325.4,598.3c-24.1,0-48.3-3.1-71.8-9.2c-72-18.7-133.5-63.7-173.3-126.6C40.8,400,26.3,325.8,39.6,253.6
	l3.1-16.8L0,224.9l92.7-90.7l32.3,125.6l-43.4-12.1l-3.2,20.9C58.8,397.8,139.7,519,266.6,550.5c19.4,4.8,39.3,7.3,59.1,7.3
	c113.4,0,214.3-77.8,245.4-189.3l4-14.2l39.1,10.9l-3.7,13.3c-9,32.1-23,62.2-41.7,89.6c-18.2,26.5-40.4,49.9-66,69.5
	C451.4,576.7,388.4,598.3,325.4,598.3L325.4,598.3z"/>
<path fill="#5196D0" d="M325.4,596.3c-24,0-48-3.1-71.3-9.2C182.6,568.5,121.5,523.8,82,461.3c-39.2-62-53.6-135.7-40.4-207.4
	l3.4-18.6L3.9,223.9L91.6,138l30.5,118.9l-42.2-11.8l-3.5,23.2c-19.7,130.2,61.8,252.4,189.7,284.1c19.6,4.9,39.6,7.3,59.6,7.3
	c0,0,0,0,0,0C440,559.7,541.7,481.3,573,369l3.4-12.3l35.3,9.8l-3.2,11.3c-8.9,31.9-22.8,61.8-41.5,89c-18.1,26.4-40.1,49.6-65.5,69
	C450.6,574.8,388,596.3,325.4,596.3C325.4,596.3,325.4,596.3,325.4,596.3z"/>
<path fill="#5196D0" d="M600.9,243.9l-54.3,7.1c-5.9,0.8-10.1,6.2-9.3,12.1l2.1,16.5c0.8,5.9,6.2,10.1,12.1,9.3l54.3-7.1
	c5.9-0.8,10.1-6.2,9.3-12.1l-2.1-16.5C612.2,247.3,606.8,243.2,600.9,243.9L600.9,243.9z"/>
<path fill="#5196D0" d="M559.1,141.2l-47.7,26.9c-5.2,2.9-7,9.5-4.1,14.7l8.2,14.5c2.9,5.2,9.5,7,14.7,4.1l47.7-26.9
	c5.2-2.9,7-9.5,4.1-14.7l-8.2-14.5C570.8,140.2,564.3,138.3,559.1,141.2L559.1,141.2z"/>
<path fill="#5196D0" d="M481.8,61.7l-34.2,42.8c-3.7,4.6-2.9,11.4,1.7,15.1l13,10.4c4.6,3.7,11.4,2.9,15.1-1.7l34.2-42.8
	c3.7-4.6,2.9-11.4-1.7-15.1l-13-10.4C492.3,56.3,485.5,57.1,481.8,61.7L481.8,61.7z"/>
<path fill="#5196D0" d="M380.4,16.9l-15.7,52.5c-1.7,5.7,1.5,11.7,7.2,13.4l15.9,4.8c5.7,1.7,11.7-1.5,13.4-7.2l15.7-52.5
	c1.7-5.7-1.5-11.7-7.2-13.4l-15.9-4.7C388.1,8,382.1,11.2,380.4,16.9L380.4,16.9z"/>
<path fill="#5196D0" d="M269.5,13.3l5.2,54.6c0.6,5.9,5.8,10.3,11.7,9.7L303,76c5.9-0.6,10.3-5.8,9.7-11.7l-5.2-54.6
	C307,3.8,301.7-0.5,295.8,0l-16.5,1.6C273.3,2.2,269,7.4,269.5,13.3L269.5,13.3z"/>
<path fill="#5196D0" d="M286.2,149.7l-0.1,152.5c0,5.9,4.8,10.8,10.7,10.8l16.6,0c5.9,0,10.8-4.8,10.8-10.7l0.1-152.5
	c0-5.9-4.8-10.8-10.7-10.8l-16.6,0C291.1,139,286.3,143.8,286.2,149.7L286.2,149.7z"/>
<path fill="#5196D0" d="M450.5,278.8L298,279c-5.9,0-10.8,4.8-10.8,10.8l0,16.6c0,5.9,4.8,10.8,10.8,10.8l152.5-0.2
	c5.9,0,10.8-4.8,10.8-10.8l0-16.6C461.3,283.6,456.4,278.8,450.5,278.8L450.5,278.8z"/>
<path fill="#5196D0" d="M165.5,51.6l25.2,48.7c2.7,5.3,9.2,7.3,14.5,4.6l14.8-7.6c5.3-2.7,7.3-9.2,4.6-14.5L199.3,34
	c-2.7-5.3-9.2-7.3-14.5-4.6l-14.8,7.7C164.8,39.8,162.7,46.3,165.5,51.6L165.5,51.6z"/>
</svg>
