<?xml version="1.0" encoding="utf-8"?>
<!-- Generator: Adobe Illustrator 19.2.0, SVG Export Plug-In . SVG Version: 6.00 Build 0)  -->
<svg version="1.1" id="Forma_1_копия_2_1_" xmlns="http://www.w3.org/2000/svg" xmlns:xlink="http://www.w3.org/1999/xlink"
	 x="0px" y="0px" viewBox="0 0 17 17" enable-background="new 0 0 17 17" xml:space="preserve">
<g id="Forma_1_копия_2">
	<g>
		<path fill="#3588D3" d="M8.5,0C3.8,0,0,3.8,0,8.5C0,13.2,3.8,17,8.5,17c4.7,0,8.5-3.8,8.5-8.5C17,3.8,13.2,0,8.5,0z M8.5,15.2
			c-3.7,0-6.7-3-6.7-6.7c0-3.7,3-6.7,6.7-6.7c3.7,0,6.7,3,6.7,6.7C15.2,12.2,12.2,15.2,8.5,15.2z M12.9,8.2H9.1V3.6
			c0-0.4-0.3-0.7-0.7-0.7C8,2.9,7.7,3.3,7.7,3.6v5.3c0,0.4,0.3,0.7,0.7,0.7h4.5c0.4,0,0.7-0.3,0.7-0.7C13.6,8.5,13.3,8.2,12.9,8.2z"
			/>
	</g>
</g>
</svg>
