<?xml version="1.0" encoding="utf-8"?>
<!-- Generator: Adobe Illustrator 19.2.0, SVG Export Plug-In . SVG Version: 6.00 Build 0)  -->
<svg version="1.1" xmlns="http://www.w3.org/2000/svg" xmlns:xlink="http://www.w3.org/1999/xlink" x="0px" y="0px"
	 viewBox="0 0 62 62" enable-background="new 0 0 62 62" xml:space="preserve">
<g id="Эллипс_3_1_" enable-background="new    ">
	<g id="Эллипс_3">
		<g>
			<path fill="#FFFFFF" d="M31,2c16,0,29,13,29,29c0,16-13,29-29,29S2,47,2,31C2,15,15,2,31,2 M31,0C13.9,0,0,13.9,0,31
				c0,17.1,13.9,31,31,31c17.1,0,31-13.9,31-31C62,13.9,48.1,0,31,0L31,0z"/>
		</g>
	</g>
</g>
<g id="Forma_1_1_" enable-background="new    ">
	<g id="Forma_1">
		<g>
			<path fill="#FFFFFF" d="M27.6,16C21.2,16,16,21.2,16,27.6c0,6.4,5.2,11.6,11.6,11.6c6.4,0,11.6-5.2,11.6-11.6
				C39.2,21.2,34,16,27.6,16L27.6,16z M27.6,36.3c-4.8,0-8.7-3.9-8.7-8.7c0-4.8,3.9-8.7,8.7-8.7s8.7,3.9,8.7,8.7
				C36.3,32.4,32.4,36.3,27.6,36.3L27.6,36.3z M27.6,20.8c-3.7,0-6.8,3-6.8,6.8h1.9c0-2.7,2.2-4.8,4.8-4.8V20.8L27.6,20.8z M39,34.9
				c-1.1,1.6-2.5,3-4.1,4.1l7.1,7.1c0.6,0.6,1.3,0.9,2.1,0.9c0.7,0,1.5-0.3,2.1-0.9c1.1-1.1,1.1-3,0-4.1L39,34.9L39,34.9z"/>
		</g>
	</g>
</g>
</svg>
